<?xml version="1.0" standalone="no"?><!DOCTYPE svg PUBLIC "-//W3C//DTD SVG 1.1//EN" "http://www.w3.org/Graphics/SVG/1.1/DTD/svg11.dtd"><svg class="icon" width="128px" height="128.00px" viewBox="0 0 1024 1024" version="1.1" xmlns="http://www.w3.org/2000/svg"><path d="M567.381333 77.866667c0 41.642667-34.56 76.16-76.202666 76.16a76.8 76.8 0 0 1-76.117334-76.16c0-41.514667 34.688-76.16 76.117334-76.16 41.642667 0 76.202667 34.688 76.202666 76.16z m-76.202666 138.368c-44.885333 0-79.488 34.56-79.488 79.616 0 44.928 34.56 79.573333 79.573333 79.573333 44.928 0 79.573333-34.602667 79.573333-79.573333s-35.2-79.616-80-79.616h0.341334z m0 214.570666c-44.885333 0-82.986667 38.016-82.986667 82.986667s38.144 82.986667 83.072 82.986667 83.029333-38.016 83.029333-82.986667-38.144-82.986667-83.029333-82.986667h-0.085333z m0 217.898667c-44.885333 0-79.488 34.56-79.488 79.530667s34.56 79.616 79.573333 79.616a78.336 78.336 0 0 0 79.573333-79.616c0-41.472-35.2-79.530667-80-79.530667h0.341334z m0 221.482667a76.8 76.8 0 0 0-76.117334 76.117333 76.8 76.8 0 0 0 76.117334 75.989333c41.685333 0 76.202667-34.517333 76.202666-76.117333 0-41.514667-34.56-75.989333-76.202666-75.989333zM702.293333 205.781333c-48.469333 0-89.941333 41.685333-89.941333 90.069334 0 48.384 41.514667 89.898667 89.941333 89.898666 48.426667 0 89.856-41.6 89.856-89.898666 0-48.426667-41.472-89.984-89.856-89.984v-0.085334z m0 214.613334c-51.882667 0-93.44 41.514667-93.44 93.44a93.013333 93.013333 0 0 0 93.44 93.312 93.013333 93.013333 0 0 0 93.397334-93.397334 93.013333 93.013333 0 0 0-93.397334-93.354666z m0 217.941333c-48.469333 0-89.941333 41.642667-89.941333 89.898667 0 48.426667 41.514667 89.984 89.941333 89.984 48.426667 0 89.856-41.642667 89.856-89.984s-41.429333-89.898667-89.856-89.898667z m217.856-228.394667a104.106667 104.106667 0 0 0-103.68 103.850667c0 55.338667 44.842667 103.808 103.68 103.808 58.922667 0 103.850667-45.44 103.850667-104.277333-3.498667-58.965333-48.426667-103.722667-103.850667-103.722667v0.341333zM276.736 226.645333c-38.058667 0-69.12 31.146667-69.12 69.248 0 38.016 31.104 69.12 69.12 69.12 38.101333 0 69.077333-31.104 69.077333-69.12 0-38.101333-31.018667-69.12-69.077333-69.12v-0.128z m0 214.485334c-41.514667 0-72.661333 31.104-72.661333 72.661333 0 41.6 30.762667 72.661333 72.32 72.661333s72.32-31.146667 72.32-72.661333c0-41.6-31.36-72.661333-72.96-72.661333h0.981333z m0 217.898666c-38.058667 0-69.12 31.189333-69.12 69.12 0 38.186667 31.104 69.248 69.12 69.248 38.101333 0 69.077333-31.36 69.077333-69.76s-31.018667-69.12-69.077333-69.12v0.512z m-214.4-207.488c-34.688 0-62.336 27.562667-62.336 62.250667 0 34.56 27.648 62.250667 62.293333 62.250667 34.56 0 62.250667-27.648 62.250667-62.250667s-27.648-62.250667-62.208-62.250667z" fill="#70a1ff" /></svg>