<svg t="1632623321003" class="icon" viewBox="0 0 1024 1024" version="1.1" xmlns="http://www.w3.org/2000/svg" p-id="18253" width="128" height="128"><path d="M936 96a96 96 0 0 0-96-96H184a96 96 0 0 0-96 96v832a96 96 0 0 0 96 96h656a96 96 0 0 0 96-96V96z m-64 832a32 32 0 0 1-32 32H184a32 32 0 0 1-32-32V96a32 32 0 0 1 32-32h656a32 32 0 0 1 32 32v832zM499.76 235.072a274.096 274.096 0 1 0 274.096 274.08 274.4 274.4 0 0 0-274.096-274.08z m0 484.176a210.096 210.096 0 1 1 210.096-210.096 210.32 210.32 0 0 1-210.096 210.096z m0-325.888a115.808 115.808 0 1 0 115.808 115.792 115.936 115.936 0 0 0-115.808-115.792z m0 167.6a51.808 51.808 0 1 1 51.808-51.808 51.856 51.856 0 0 1-51.808 51.808zM296 176h432a32 32 0 0 0 0-64H296a32 32 0 0 0 0 64z m432 672H296a32 32 0 0 0 0 64h432a32 32 0 0 0 0-64zM219.2 166.4a27.936 27.936 0 1 0-27.936-27.936A27.936 27.936 0 0 0 219.2 166.4z m586.608-55.856a27.936 27.936 0 1 0 27.92 27.92 27.936 27.936 0 0 0-27.856-27.92zM219.2 844.944a27.936 27.936 0 1 0 27.936 27.936A27.936 27.936 0 0 0 219.2 844.928z m586.608 55.872a27.92 27.92 0 0 0 27.92-27.936" p-id="18254" fill="#70a1ff"></path></svg>