<svg t="1632623272687" class="icon" viewBox="0 0 1024 1024" version="1.1" xmlns="http://www.w3.org/2000/svg" p-id="15966" width="128" height="128"><path d="M556.8 392.533333h-25.6V448h25.6c17.066667-2.133333 25.6-10.666667 25.6-27.733333-2.133333-17.066667-10.666667-25.6-25.6-27.733334z m177.066667-115.2H290.133333c-6.4 0-12.8 6.4-12.8 12.8v337.066667c0 6.4 6.4 12.8 12.8 12.8h443.733334c6.4 0 12.8-6.4 12.8-12.8V290.133333c0-6.4-6.4-12.8-12.8-12.8zM469.333333 522.666667c0 12.8-6.4 17.066667-19.2 17.066666s-19.2-6.4-19.2-17.066666v-145.066667c0-12.8 6.4-19.2 19.2-19.2 12.8 0 19.2 6.4 19.2 19.2v145.066667z m89.6-42.666667h-27.733333v42.666667c0 12.8-6.4 17.066667-19.2 17.066666s-19.2-6.4-19.2-17.066666v-145.066667c0-12.8 6.4-19.2 19.2-19.2h46.933333c40.533333 2.133333 61.866667 23.466667 64 61.866667-4.266667 38.4-25.6 57.6-64 59.733333zM832 106.666667H192C145.066667 106.666667 106.666667 145.066667 106.666667 192v533.333333c0 46.933333 38.4 85.333333 85.333333 85.333334h209.066667l78.933333 89.6c17.066667 19.2 46.933333 19.2 64 0l78.933333-89.6H832c46.933333 0 85.333333-38.4 85.333333-85.333334V192c0-46.933333-38.4-85.333333-85.333333-85.333333z m-21.333333 554.666666c0 23.466667-19.2 42.666667-42.666667 42.666667H256c-23.466667 0-42.666667-19.2-42.666667-42.666667V256c0-23.466667 19.2-42.666667 42.666667-42.666667h512c23.466667 0 42.666667 19.2 42.666667 42.666667v405.333333z" p-id="15967" fill="#70a1ff"></path></svg>