<svg t="1632623078879" class="icon" viewBox="0 0 1024 1024" version="1.1" xmlns="http://www.w3.org/2000/svg" p-id="5638" width="128" height="128"><path d="M915.2 844.8l-6.4-8.533333c-6.4-10.666667-12.8-19.2-21.333333-27.733334-6.4-6.4-21.333333-14.933333-23.466667-23.466666 6.4 0 10.666667 0 14.933333-2.133334 8.533333-2.133333 14.933333 0 23.466667-2.133333 4.266667 0 6.4-2.133333 10.666667-2.133333v-2.133334c-4.266667-4.266667-6.4-10.666667-10.666667-14.933333-10.666667-12.8-21.333333-23.466667-34.133333-34.133333-6.4-6.4-14.933333-10.666667-21.333334-14.933334-2.133333-2.133333-6.4-2.133333-8.533333-6.4-2.133333-6.4-6.4-12.8-6.4-19.2-4.266667-14.933333-10.666667-29.866667-14.933333-44.8-2.133333-10.666667-4.266667-19.2-8.533334-29.866666-17.066667-40.533333-42.666667-74.666667-78.933333-100.266667-8.533333-6.4-17.066667-10.666667-27.733333-12.8-6.4 0-10.666667-2.133333-17.066667-2.133333-4.266667-2.133333-6.4-6.4-8.533333-8.533334-10.666667-8.533333-23.466667-14.933333-36.266667-19.2-8.533333-2.133333-17.066667 2.133333-19.2 10.666667-8.533333 14.933333 6.4 32 10.666667 40.533333 4.266667 6.4 6.4 12.8 8.533333 19.2 2.133333 4.266667 2.133333 8.533333 2.133333 12.8 2.133333 10.666667 4.266667 23.466667 8.533334 34.133334 2.133333 6.4 4.266667 10.666667 6.4 14.933333 2.133333 2.133333 4.266667 6.4 4.266666 8.533333-2.133333 6.4-6.4 10.666667-6.4 17.066667-10.666667 25.6-10.666667 55.466667-2.133333 83.2 2.133333 6.4 10.666667 21.333333 21.333333 17.066667 10.666667-4.266667 10.666667-17.066667 14.933334-29.866667 0-2.133333 2.133333-4.266667 2.133333-6.4 2.133333 6.4 4.266667 14.933333 6.4 21.333333 6.4 12.8 14.933333 25.6 25.6 36.266667 4.266667 6.4 10.666667 10.666667 14.933333 17.066667 10.666667 8.533333 4.266667 10.666667 83.2 49.066666 0 0 32 14.933333 46.933334 21.333334 14.933333 6.4 29.866667 10.666667 44.8 14.933333 2.133333 0 2.133333-4.266667 2.133333-6.4zM693.333333 550.4c-2.133333-8.533333-6.4-19.2-10.666666-25.6-6.4-6.4 2.133333-12.8 10.666666-10.666667h2.133334c4.266667 0 6.4 4.266667 8.533333 6.4 0 2.133333 2.133333 2.133333 2.133333 4.266667 2.133333 10.666667-2.133333 23.466667-12.8 25.6z" p-id="5639" fill="#70a1ff"></path><path d="M46.933333 290.133333a371.2 119.466667 0 1 0 742.4 0 371.2 119.466667 0 1 0-742.4 0Z" p-id="5640" fill="#70a1ff"></path><path d="M678.4 793.6h-6.4c-14.933333 0-53.333333-6.4-76.8-55.466667v-4.266666c-6.4-17.066667-10.666667-36.266667-10.666667-55.466667-49.066667 8.533333-106.666667 12.8-166.4 12.8-164.266667 0-302.933333-34.133333-352-81.066667-8.533333-6.4-19.2-2.133333-19.2 8.533334v113.066666c0 66.133333 166.4 119.466667 371.2 119.466667 110.933333 0 211.2-14.933333 277.333334-40.533333-6.4-4.266667-10.666667-10.666667-17.066667-17.066667zM418.133333 631.466667c64 0 123.733333-4.266667 174.933334-14.933334v-2.133333c0-2.133333-2.133333-4.266667-2.133334-6.4-4.266667-12.8-6.4-25.6-10.666666-40.533333 0-2.133333-2.133333-6.4-2.133334-8.533334 0-2.133333-2.133333-2.133333-2.133333-4.266666v-4.266667l-2.133333-2.133333c-6.4-12.8-27.733333-46.933333-14.933334-87.466667-44.8 6.4-91.733333 8.533333-142.933333 8.533333-164.266667 0-302.933333-34.133333-352-81.066666-8.533333-6.4-19.2-2.133333-19.2 8.533333V512c0 66.133333 166.4 119.466667 373.333333 119.466667z" p-id="5641" fill="#70a1ff"></path></svg>