<svg t="1632624129790" class="icon" viewBox="0 0 1024 1024" version="1.1" xmlns="http://www.w3.org/2000/svg" p-id="58797" width="128" height="128"><path d="M674.133333 471.466667c-2.133333 2.133333-2.133333 4.266667-2.133333 8.533333 0 2.133333 0 6.4 2.133333 8.533333 2.133333 2.133333 4.266667 2.133333 8.533334 2.133334 2.133333 0 6.4-2.133333 6.4-4.266667 2.133333-2.133333 4.266667-4.266667 4.266666-6.4s-2.133333-6.4-4.266666-8.533333c-2.133333-2.133333-10.666667-2.133333-14.933334 0z m160 187.733333s-32 12.8-68.266666 6.4c6.4-32 4.266667-66.133333 4.266666-91.733333 0-10.666667 0-21.333333-2.133333-23.466667 19.2-27.733333 32-115.2-2.133333-179.2-19.2-36.266667-61.866667-78.933333-153.6-72.533333-2.133333 0-10.666667-4.266667-17.066667-8.533334-34.133333-17.066667-98.133333-49.066667-142.933333-6.4-10.666667 8.533333-17.066667 32-17.066667 59.733334h-17.066667c-104.533333 0-194.133333 66.133333-194.133333 160-2.133333 12.8-2.133333 25.6-2.133333 38.4-2.133333 44.8-2.133333 87.466667-42.666667 110.933333-4.266667 2.133333-6.4 8.533333-4.266667 14.933333 2.133333 4.266667 6.4 6.4 8.533334 6.4 2.133333 0 4.266667 0 4.266666-2.133333 36.266667-19.2 46.933333-51.2 51.2-85.333333 4.266667 14.933333 10.666667 29.866667 19.2 40.533333 6.4 8.533333 2.133333 55.466667 4.266667 78.933333 2.133333 36.266667 2.133333 42.666667 6.4 49.066667 8.533333 8.533333 32 12.8 53.333333 12.8 17.066667 0 34.133333-2.133333 40.533334-6.4 12.8-6.4 12.8-32 10.666666-83.2 0-8.533333-2.133333-21.333333-2.133333-27.733333 4.266667 2.133333 10.666667 2.133333 14.933333 4.266666 14.933333 4.266667 32 10.666667 51.2 10.666667 25.6 0 64-2.133333 87.466667-8.533333 0 6.4 0 12.8-2.133333 19.2-4.266667 40.533333-6.4 70.4 6.4 83.2 6.4 6.4 19.2 12.8 40.533333 12.8 12.8 0 34.133333-4.266667 42.666667-10.666667 6.4-6.4 8.533333-23.466667 17.066666-110.933333 2.133333-17.066667 2.133333-29.866667 4.266667-34.133334 4.266667-19.2 8.533333-21.333333 19.2-21.333333 4.266667 10.666667 10.666667 21.333333 14.933333 32 10.666667 23.466667 19.2 51.2 10.666667 64-4.266667 6.4-10.666667 8.533333-23.466667 8.533333-12.8 0-21.333333 10.666667-21.333333 25.6s6.4 32 19.2 34.133334h14.933333c27.733333 0 49.066667-8.533333 64-23.466667 12.8-10.666667 19.2-25.6 25.6-42.666667 8.533333 2.133333 19.2 2.133333 25.6 2.133334 29.866667 0 53.333333-10.666667 55.466667-10.666667 6.4-2.133333 8.533333-8.533333 6.4-14.933333-2.133333-6.4-4.266667-12.8-10.666667-10.666667z m-113.066666 55.466667c-14.933333 12.8-34.133333 19.2-59.733334 17.066666-2.133333-4.266667-2.133333-14.933333-2.133333-17.066666 19.2 0 34.133333-6.4 42.666667-19.2 6.4-10.666667 6.4-23.466667 2.133333-36.266667 10.666667 8.533333 21.333333 17.066667 34.133333 21.333333 2.133333 0 2.133333 0 4.266667 2.133334-6.4 10.666667-10.666667 23.466667-21.333333 32z m32-174.933334c-4.266667 6.4-4.266667 12.8-2.133334 36.266667s2.133333 55.466667-2.133333 85.333333c-27.733333-10.666667-51.2-36.266667-68.266667-72.533333 0-2.133333-2.133333-4.266667-2.133333-6.4-2.133333-4.266667-4.266667-6.4-4.266667-8.533333v-2.133334s0-2.133333-2.133333-2.133333h-2.133333s-2.133333 0-2.133334-2.133333c0 0-44.8 2.133333-51.2 38.4 0 4.266667-2.133333 19.2-4.266666 36.266666-2.133333 27.733333-8.533333 81.066667-10.666667 93.866667-10.666667 4.266667-44.8 4.266667-51.2 0-6.4-6.4-2.133333-46.933333 0-64 2.133333-27.733333 4.266667-36.266667-2.133333-42.666667-2.133333-2.133333-6.4-4.266667-10.666667-2.133333-21.333333 6.4-66.133333 10.666667-93.866667 10.666667-17.066667 0-32-4.266667-44.8-8.533334-8.533333-2.133333-19.2-6.4-27.733333-6.4-2.133333 0-6.4 0-10.666667 2.133334-6.4 6.4-6.4 14.933333-4.266666 49.066666 2.133333 19.2 4.266667 55.466667 0 64-12.8 4.266667-55.466667 4.266667-66.133334-2.133333v-34.133333c-2.133333-44.8-2.133333-78.933333-10.666666-89.6-25.6-34.133333-32-108.8-32-108.8 0-91.733333 91.733333-138.666667 172.8-138.666667h19.2s4.266667 21.333333 8.533333 32c17.066667 53.333333 59.733333 85.333333 119.466667 91.733333 6.4 0 10.666667-4.266667 10.666666-8.533333 0-6.4-4.266667-10.666667-8.533333-10.666667-66.133333-6.4-91.733333-46.933333-102.4-76.8-14.933333-42.666667-6.4-85.333333 2.133333-91.733333 34.133333-32 87.466667-6.4 119.466667 10.666667 14.933333 6.4 21.333333 10.666667 27.733333 10.666666 64-4.266667 110.933333 17.066667 134.4 61.866667 29.866667 57.6 14.933333 136.533333 2.133334 155.733333z m117.333333-313.6L582.4 59.733333c-21.333333-10.666667-44.8-17.066667-70.4-17.066666s-49.066667 6.4-70.4 17.066666L153.6 226.133333c-38.4 21.333333-68.266667 74.666667-68.266667 119.466667v332.8c0 44.8 29.866667 96 68.266667 119.466667l288 166.4c19.2 10.666667 44.8 17.066667 70.4 17.066666s49.066667-6.4 70.4-17.066666l288-166.4c38.4-23.466667 68.266667-74.666667 68.266667-119.466667V345.6c0-44.8-29.866667-98.133333-68.266667-119.466667zM896 678.4c0 29.866667-23.466667 68.266667-49.066667 83.2l-288 166.4c-10.666667 6.4-27.733333 10.666667-46.933333 10.666667s-36.266667-4.266667-49.066667-10.666667L177.066667 761.6C151.466667 746.666667 128 708.266667 128 678.4V345.6c0-29.866667 23.466667-68.266667 49.066667-83.2l288-166.4c10.666667-6.4 27.733333-10.666667 46.933333-10.666667s36.266667 4.266667 49.066667 10.666667l288 166.4c25.6 14.933333 49.066667 53.333333 49.066666 83.2L896 678.4z" p-id="58798" fill="#70a1ff"></path></svg>