<svg t="1632623561080" class="icon" viewBox="0 0 1024 1024" version="1.1" xmlns="http://www.w3.org/2000/svg" p-id="27764" width="128" height="128"><path d="M206.933333 866.133333l-134.4-44.8c-17.066667-6.4-29.866667-21.333333-29.866666-40.533333V279.466667c0-14.933333 6.4-27.733333 19.2-36.266667L200.533333 149.333333c14.933333-8.533333 34.133333 0 34.133334 17.066667v676.266667c0 17.066667-14.933333 27.733333-27.733334 23.466666z" p-id="27765" fill="#70a1ff"></path><path d="M360.533333 281.6h-2.133333-2.133333-2.133334s-2.133333 0-2.133333-2.133333c0 0-2.133333 0-2.133333-2.133334l-2.133334-2.133333-2.133333-2.133333-2.133333-2.133334-2.133334-2.133333-2.133333-2.133333-2.133333-2.133334c0-2.133333 0-2.133333-2.133334-4.266666 0-2.133333 0-2.133333-2.133333-4.266667v-4.266667-4.266666-4.266667-4.266667-4.266666-4.266667-4.266667-4.266666c0-2.133333 0-2.133333 2.133333-2.133334 0 0 0-2.133333 2.133334-2.133333l2.133333-2.133333 2.133333-2.133334 2.133334-2.133333 2.133333-2.133333s2.133333 0 2.133333-2.133334c0 0 2.133333 0 2.133334-2.133333h10.666666s2.133333 0 2.133334 2.133333c0 0 2.133333 0 2.133333 2.133334l2.133333 2.133333 2.133334 2.133333 2.133333 2.133334 2.133333 2.133333 2.133334 2.133333 2.133333 2.133334 2.133333 2.133333s0 2.133333 2.133334 4.266667c0 2.133333 0 2.133333 2.133333 4.266666v32c0 2.133333 0 2.133333-2.133333 2.133334 0 0 0 2.133333-2.133334 2.133333l-2.133333 2.133333-2.133333 2.133334-2.133334 2.133333-2.133333 2.133333s-2.133333 0-2.133333 2.133334c0 0-2.133333 0-2.133334 2.133333h-2.133333-2.133333-2.133334c2.133333 0 2.133333 0 0 0m-93.866666-117.333333v674.133333c0 12.8 10.666667 23.466667 23.466666 21.333333l202.666667-27.733333c21.333333-2.133333 36.266667-21.333333 36.266667-42.666667V418.133333l-179.2-12.8h-2.133334-2.133333-2.133333-2.133334s-2.133333 0-2.133333-2.133333c0 0-2.133333 0-2.133333-2.133333 0 0-2.133333 0-2.133334-2.133334 0 0 0-2.133333-2.133333-2.133333 0 0 0-2.133333-2.133333-2.133333 0 0 0-2.133333-2.133334-2.133334v-2.133333-2.133333-2.133334-2.133333-2.133333-2.133334-2.133333-2.133333-2.133334-2.133333-2.133333-2.133334s0-2.133333 2.133334-2.133333c0 0 0-2.133333 2.133333-2.133333l2.133333-2.133334 2.133334-2.133333s2.133333 0 2.133333-2.133333h10.666667l181.333333 17.066666v-147.2c0-21.333333-14.933333-38.4-34.133333-42.666666l-202.666667-40.533334c-14.933333-2.133333-27.733333 8.533333-27.733333 21.333334zM652.8 317.866667h-4.266667-2.133333s-2.133333 0-2.133333-2.133334c0 0-2.133333 0-2.133334-2.133333 0 0-2.133333 0-2.133333-2.133333l-2.133333-2.133334-2.133334-2.133333-2.133333-2.133333s0-2.133333-2.133333-2.133334c0 0 0-2.133333-2.133334-2.133333 0 0 0-2.133333-2.133333-2.133333v-2.133334-2.133333-4.266667-4.266666-4.266667-4.266667-4.266666-2.133334-2.133333-2.133333s0-2.133333 2.133333-2.133334c0 0 0-2.133333 2.133334-2.133333 0 0 0-2.133333 2.133333-2.133333 0 0 0-2.133333 2.133333-2.133334l2.133334-2.133333s2.133333 0 2.133333-2.133333h14.933333s2.133333 0 2.133334 2.133333c0 0 2.133333 0 2.133333 2.133333 0 0 2.133333 0 2.133333 2.133334l2.133334 2.133333 2.133333 2.133333s0 2.133333 2.133333 2.133334c0 0 0 2.133333 2.133334 2.133333 0 0 0 2.133333 2.133333 2.133333V300.8s0 2.133333-2.133333 2.133333c0 0 0 2.133333-2.133334 2.133334 0 0 0 2.133333-2.133333 2.133333l-2.133333 2.133333s-2.133333 0-2.133334 2.133334c0 0-2.133333 0-2.133333 2.133333h-2.133333-2.133334c2.133333 4.266667 0 4.266667-2.133333 4.266667 2.133333 0 2.133333 0 0 0m-68.266667-93.866667v571.733333c0 12.8 10.666667 23.466667 23.466667 21.333334l136.533333-19.2c21.333333-2.133333 36.266667-21.333333 36.266667-42.666667v-320l-136.533333-10.666667h-2.133334-2.133333-2.133333-2.133334l-2.133333-2.133333-2.133333-2.133333-2.133334-2.133334-2.133333-2.133333v-2.133333-2.133334-2.133333-2.133333-2.133334-2.133333-2.133333-2.133334-2.133333-2.133333-2.133334-2.133333-2.133333-2.133334-2.133333-2.133333l4.266667-4.266667h8.533333l136.533333 12.8v-123.733333c0-21.333333-14.933333-38.4-34.133333-42.666667l-138.666667-27.733333c-8.533333 4.266667-19.2 12.8-19.2 27.733333zM881.066667 345.6h-2.133334-2.133333-2.133333s-2.133333 0-2.133334-2.133333l-2.133333-2.133334-2.133333-2.133333s0-2.133333-2.133334-2.133333c0 0 0-2.133333-2.133333-2.133334 0 0 0-2.133333-2.133333-2.133333v-2.133333-2.133334-2.133333-2.133333-2.133334-2.133333-2.133333-2.133334-2.133333-2.133333-2.133334-2.133333-2.133333-2.133334s0-2.133333 2.133333-2.133333c0 0 0-2.133333 2.133333-2.133333l2.133334-2.133334 2.133333-2.133333H887.466667l2.133333 2.133333 2.133333 2.133334 2.133334 2.133333s0 2.133333 2.133333 2.133333c0 0 0 2.133333 2.133333 2.133334 0 0 0 2.133333 2.133334 2.133333V337.066667s0 2.133333-2.133334 2.133333c0 0 0 2.133333-2.133333 2.133333l-2.133333 2.133334-2.133334 2.133333h-2.133333-2.133333H881.066667c2.133333 0 2.133333 0 0 0m-53.333334-78.933333v492.8c0 12.8 10.666667 23.466667 23.466667 21.333333l93.866667-12.8c21.333333-2.133333 36.266667-21.333333 36.266666-42.666667V448l-106.666666-8.533333-4.266667-2.133334-4.266667-4.266666v-2.133334-2.133333-2.133333-2.133334-2.133333-2.133333-2.133334-2.133333-2.133333-2.133334-2.133333-2.133333-2.133334-2.133333-2.133333-2.133334l4.266667-4.266666 4.266667-2.133334 106.666666 10.666667v-106.666667c0-21.333333-14.933333-38.4-34.133333-42.666666l-93.866667-8.533334c-12.8-2.133333-25.6 8.533333-25.6 21.333334z" p-id="27766" fill="#70a1ff"></path></svg>