<svg t="1632622898096" class="icon" viewBox="0 0 1024 1024" version="1.1" xmlns="http://www.w3.org/2000/svg" p-id="21757" width="128" height="128"><path d="M775.308 248.692c145.408 145.408 145.408 381.208 0 526.616-145.408 145.408-381.208 145.408-526.616 0-145.408-145.408-145.408-381.208 0-526.616 145.408-145.408 381.208-145.408 526.616 0zM281.6 742.4c127.232 127.255 333.521 127.255 460.753 0 127.256-127.232 127.256-333.521 0-460.753-127.232-127.256-333.521-127.256-460.753 0-127.255 127.232-127.255 333.521 0 460.753z" fill="#70a1ff" p-id="21758"></path><path d="M465.455 348.23v88.436a4.668 4.668 0 0 0 4.654 4.655h83.782a4.655 4.655 0 0 0 4.654-4.655V348.23h36.864a4.655 4.655 0 0 0 3.654-7.564l-83.432-104.262a4.655 4.655 0 0 0-7.262 0L424.96 340.666a4.655 4.655 0 0 0 3.654 7.564h36.84z m129.954 327.54h-36.864v-88.436a4.655 4.655 0 0 0-4.654-4.655h-83.782a4.655 4.655 0 0 0-4.654 4.655v88.436H428.59a4.655 4.655 0 0 0-3.654 7.564l83.432 104.262c1.862 2.327 5.4 2.327 7.262 0l83.409-104.262a4.655 4.655 0 0 0-3.63-7.564m195.863-205.66a4.655 4.655 0 0 0-4.655-4.655h-88.436V428.59a4.655 4.655 0 0 0-7.564-3.631l-104.262 83.41a4.655 4.655 0 0 0 0 7.26l104.262 83.41a4.655 4.655 0 0 0 7.564-3.63v-36.865h88.436a4.653 4.653 0 0 0 4.655-4.654v-83.782z m-457.891-45.15a4.655 4.655 0 0 0-7.564 3.654v36.84h-88.436a4.655 4.655 0 0 0-4.655 4.655v83.782a4.668 4.668 0 0 0 4.655 4.654h88.436v36.864a4.655 4.655 0 0 0 7.564 3.631l104.262-83.41a4.655 4.655 0 0 0 0-7.26l-104.262-83.41z" fill="#70a1ff" p-id="21759"></path></svg>