<svg t="1632623901724" class="icon" viewBox="0 0 1024 1024" version="1.1" xmlns="http://www.w3.org/2000/svg" p-id="45723" width="128" height="128"><path d="M861.44 479.573333c-20.693333 0-36.48 17.493333-38.613333 40.96h76.8c-1.92-21.973333-14.293333-40.96-38.186667-40.96zM698.24 531.413333c-11.52-3.413333-23.68-5.12-35.626667-5.12-22.826667 0-35.413333 9.813333-35.413333 25.173334v0.426666c0 15.36 14.08 24.106667 30.506667 24.106667 22.186667 0 40.533333-13.653333 40.533333-32.853333v-11.733334z" p-id="45724" fill="#70a1ff"></path><path d="M896 170.666667H128c-47.146667 0-85.333333 38.186667-85.333333 85.333333v512c0 47.146667 38.186667 85.333333 85.333333 85.333333h768c47.146667 0 85.333333-38.186667 85.333333-85.333333V256c0-47.146667-38.186667-85.333333-85.333333-85.333333zM422.826667 570.24c0 11.093333-6.4 20.053333-18.133334 20.053333s-17.92-8.96-17.92-20.053333v-58.453333a17.813333 17.813333 0 0 0-5.12-13.44 16.341333 16.341333 0 0 0-13.226666-5.12c-11.093333 0-18.986667 7.253333-18.986667 18.56v58.453333c0 11.093333-6.4 20.053333-18.133333 20.053333s-17.92-8.96-17.92-20.053333v-58.453333a17.813333 17.813333 0 0 0-5.12-13.44 16.512 16.512 0 0 0-13.44-5.12c-11.093333 0-19.2 7.253333-19.2 18.56v58.453333c0 11.093333-6.4 20.053333-18.133334 20.053333s-17.92-8.96-17.92-20.053333v-71.466667c0-1.493333-0.64-2.773333-1.493333-3.84a6.357333 6.357333 0 0 0-3.84-1.706666c-2.133333-0.213333-4.053333 1.066667-4.906667 3.2l-33.92 74.026666c-5.973333 12.586667-11.52 20.053333-24.32 20.053334-11.946667 0-18.346667-6.826667-24.32-20.053334l-38.4-83.84a16.789333 16.789333 0 0 1-0.853333-13.226666c1.493333-4.266667 4.906667-7.893333 9.173333-9.6 4.266667-1.92 8.96-2.133333 13.226667-0.64 4.266667 1.706667 7.893333 4.906667 9.6 9.173333l31.573333 74.453333 24.533334-58.026666c8.32-18.986667 21.973333-26.666667 39.04-26.666667 12.586667 0.426667 24.533333 6.4 32.426666 16.426667 0 0 17.066667-16.426667 36.266667-16.426667 18.346667 0 29.226667 6.186667 37.12 16.426667 10.24-10.24 24.106667-16.213333 38.4-16.426667 23.68 0 43.306667 17.066667 43.306667 41.6v66.56z m184.533333-92.16l-37.12 103.04c-1.92 5.333333-5.546667 8.106667-9.813333 8.106667h-0.64c-4.693333 0-8.32-2.773333-9.813334-8.106667l-30.293333-87.253333-30.506667 87.253333c-1.706667 5.333333-5.12 8.106667-9.813333 8.106667h-0.426667c-4.48 0-8.106667-2.773333-10.026666-8.106667l-36.906667-102.826667a12.650667 12.650667 0 0 1-1.066667-4.906666c0.213333-4.906667 4.266667-8.746667 9.173334-8.746667 4.48 0 8.32 3.2 9.173333 7.466667l30.506667 88.533333 30.72-88.746667c0.853333-4.266667 4.693333-7.253333 8.96-7.253333h1.066666c4.48 0 8.32 2.986667 9.386667 7.253333l30.506667 88.746667 30.933333-88.96c0.853333-4.053333 4.48-7.04 8.746667-7.04 2.346667 0 4.48 0.853333 6.186666 2.346667 1.706667 1.493333 2.56 3.84 2.773334 6.186666-0.853333 1.706667-1.066667 3.2-1.706667 4.906667z m107.946667 102.4c0 2.346667-0.853333 4.693333-2.346667 6.4a8.533333 8.533333 0 0 1-6.186667 2.56c-2.346667 0-4.48-0.853333-6.186666-2.346667a8.533333 8.533333 0 0 1-2.56-6.186666v-11.52c-10.453333 13.653333-26.666667 21.333333-43.946667 20.906666-22.613333 0-45.226667-13.013333-45.226667-37.76v-0.426666c0-25.6 21.12-39.253333 51.84-39.253334 12.586667-0.213333 25.173333 1.706667 37.333334 5.12v-4.266666c0-21.76-13.44-33.066667-36.053334-33.066667-9.813333-0.426667-19.413333 1.493333-28.16 5.546667-1.066667 0.426667-2.133333 0.64-3.2 0.64-4.266667 0-7.893333-3.413333-7.893333-7.68-0.213333-3.413333 1.706667-6.4 4.906667-7.466667 11.946667-5.12 20.906667-6.826667 36.48-6.826667 17.066667 0 30.293333 4.48 39.253333 13.44 8.32 8.32 12.373333 20.053333 12.373333 35.413334v66.773333z m82.773333-97.493333c-23.466667 2.773333-42.88 20.48-42.88 55.68v41.386666c0 3.2-1.706667 6.4-4.48 8.106667s-6.4 1.706667-9.173333 0a9.386667 9.386667 0 0 1-4.48-8.106667V473.6a9.194667 9.194667 0 0 1 15.573333-6.613333c1.706667 1.706667 2.773333 4.053333 2.56 6.613333v20.906667c8.96-20.266667 28.8-29.866667 41.813333-29.866667 2.346667 0 4.693333 0.853333 6.4 2.56 1.706667 1.706667 2.56 4.053333 2.56 6.613333a8.746667 8.746667 0 0 1-7.893333 9.173334z m116.906667 48.426666c-1.493333 1.493333-3.626667 2.56-5.973334 2.56h-86.186666c2.56 26.026667 20.693333 40.746667 42.026666 40.746667 12.8 0 25.173333-4.906667 34.346667-14.08 2.133333-2.133333 5.546667-2.773333 8.32-1.493333s4.693333 4.053333 4.693333 7.04c0 2.346667-1.066667 4.48-2.773333 5.76-11.733333 12.16-28.16 18.773333-45.013333 18.133333-32.853333 0-59.52-25.386667-59.52-62.72v-0.426667c0-34.773333 24.32-62.72 57.173333-62.72 35.2 0 55.253333 29.013333 55.253333 61.013334 0 2.346667-0.853333 4.48-2.346666 6.186666z" p-id="45725" fill="#70a1ff"></path></svg>