<svg t="1632624286983" class="icon" viewBox="0 0 1024 1024" version="1.1" xmlns="http://www.w3.org/2000/svg" p-id="66763" width="128" height="128"><path d="M512 42.666667C251.733333 42.666667 42.666667 251.733333 42.666667 512s209.066667 469.333333 469.333333 469.333333 469.333333-209.066667 469.333333-469.333333S772.266667 42.666667 512 42.666667z m243.2 652.8c-25.6 0-61.866667-12.8-113.066667-38.4-53.333333-25.6-119.466667-42.666667-198.4-55.466667-78.933333-12.8-121.6-19.2-130.133333-19.2 72.533333-32 149.333333-36.266667 230.4-17.066667 81.066667 21.333333 145.066667 49.066667 189.866667 83.2 38.4 32 46.933333 46.933333 21.333333 46.933334z m8.533333-70.4c-4.266667 4.266667-8.533333 10.666667-12.8 14.933333l-6.4-4.266667c-32-25.6-76.8-46.933333-130.133333-68.266666-53.333333-19.2-110.933333-29.866667-170.666667-32-51.2 0-98.133333 10.666667-138.666666 29.866666l-32 14.933334 4.266666 17.066666c-10.666667 4.266667-17.066667 6.4-21.333333 8.533334l-4.266667 2.133333c0-6.4-2.133333-17.066667-6.4-32l-6.4-25.6c23.466667-14.933333 53.333333-29.866667 89.6-42.666667 36.266667-12.8 78.933333-21.333333 128-21.333333l-46.933333 40.533333 100.266667 10.666667 2.133333-14.933333-55.466667-10.666667 34.133334-27.733333c14.933333 0 29.866667 0 44.8 2.133333-2.133333 8.533333-2.133333 14.933333 0 21.333333 2.133333 6.4 4.266667 12.8 8.533333 17.066667 8.533333 8.533333 17.066667 14.933333 29.866667 21.333333 12.8 4.266667 25.6 4.266667 38.4 2.133334 8.533333-2.133333 14.933333-6.4 19.2-12.8 4.266667-6.4 6.4-12.8 6.4-21.333334l12.8 4.266667c-2.133333 10.666667-2.133333 21.333333 2.133333 32 4.266667 8.533333 10.666667 17.066667 19.2 23.466667 8.533333 8.533333 19.2 10.666667 29.866667 12.8 8.533333 0 14.933333-2.133333 19.2-6.4 4.266667-4.266667 8.533333-8.533333 10.666666-14.933334 14.933333 12.8 25.6 23.466667 34.133334 32l10.666666 12.8c-6.4 4.266667-8.533333 10.666667-12.8 14.933334zM554.666667 492.8c2.133333-4.266667 4.266667-8.533333 8.533333-10.666667 4.266667-2.133333 6.4-4.266667 10.666667-6.4 4.266667-2.133333 8.533333-2.133333 14.933333 0 6.4 0 12.8 4.266667 17.066667 8.533334 4.266667 4.266667 6.4 10.666667 8.533333 14.933333s0 12.8-2.133333 17.066667c-2.133333 6.4-6.4 10.666667-14.933334 14.933333-6.4 2.133333-14.933333 2.133333-25.6-2.133333s-14.933333-10.666667-19.2-17.066667c2.133333-8.533333 0-12.8 2.133334-19.2z m110.933333 42.666667c0-6.4 0-10.666667 2.133333-14.933334l4.266667-8.533333c4.266667-4.266667 8.533333-6.4 17.066667-4.266667 6.4 2.133333 12.8 4.266667 17.066666 10.666667s6.4 10.666667 6.4 14.933333 2.133333 8.533333 2.133334 14.933334c0 6.4-2.133333 10.666667-8.533334 14.933333-6.4 4.266667-12.8 6.4-19.2 2.133333-6.4-2.133333-12.8-6.4-17.066666-12.8-2.133333-4.266667-4.266667-10.666667-4.266667-17.066666z m160 57.6c-12.8 12.8-25.6 21.333333-38.4 29.866666 2.133333-2.133333 2.133333-4.266667 2.133333-6.4l2.133334-8.533333-4.266667-6.4s-4.266667-6.4-12.8-17.066667c-8.533333-10.666667-21.333333-21.333333-38.4-36.266666l-4.266667-4.266667c0-8.533333-4.266667-17.066667-6.4-23.466667-4.266667-6.4-6.4-12.8-10.666666-14.933333s-8.533333-6.4-12.8-10.666667c-6.4-4.266667-12.8-4.266667-17.066667-4.266666-6.4 0-10.666667 0-14.933333 4.266666-4.266667 2.133333-8.533333 4.266667-10.666667 8.533334-8.533333-4.266667-14.933333-6.4-23.466667-8.533334 0-2.133333-2.133333-4.266667-2.133333-6.4-6.4-12.8-17.066667-21.333333-27.733333-25.6-12.8-4.266667-23.466667-4.266667-34.133334-2.133333-10.666667 4.266667-19.2 8.533333-23.466666 12.8-10.666667-2.133333-23.466667-4.266667-34.133334-4.266667l21.333334-19.2-93.866667-10.666666-2.133333 14.933333 53.333333 4.266667-10.666667 8.533333h-2.133333c-49.066667 0-98.133333 6.4-142.933333 21.333333-23.466667 8.533333-42.666667 14.933333-59.733334 23.466667-17.066667 8.533333-29.866667 17.066667-40.533333 23.466667l-10.666667 6.4 6.4 19.2c-17.066667-8.533333-32-21.333333-40.533333-36.266667-19.2-12.8-23.466667-29.866667-21.333333-49.066667 6.4-34.133333 34.133333-64 78.933333-89.6 44.8-25.6 87.466667-40.533333 121.6-49.066666 34.133333-8.533333 78.933333-14.933333 136.533333-14.933334s113.066667 10.666667 170.666667 32c57.6 23.466667 100.266667 53.333333 132.266667 89.6 32 36.266667 44.8 70.4 38.4 104.533334-2.133333 17.066667-12.8 32-23.466667 44.8z" p-id="66764" fill="#70a1ff"></path></svg>